<mxfile host="app.diagrams.net" modified="2021-05-23T03:38:01.787Z" agent="5.0 (X11; Linux x86_64) AppleWebKit/537.36 (KHTML, like Gecko) Chrome/90.0.4430.212 Safari/537.36" etag="CJ72BB9EqUz6bSFXV3fs" version="14.7.0" type="github">
  <diagram id="Fw2owBiW9lb8LaxJjtYo" name="Page-1">
    <mxGraphModel dx="3857" dy="2223" grid="1" gridSize="10" guides="1" tooltips="1" connect="1" arrows="1" fold="1" page="1" pageScale="1" pageWidth="3300" pageHeight="2339" math="0" shadow="0">
      <root>
        <mxCell id="0" />
        <mxCell id="1" parent="0" />
      </root>
    </mxGraphModel>
  </diagram>
</mxfile>
